<?xml version="1.0" encoding="utf-8"?>
<!-- Generator: Adobe Illustrator 17.0.0, SVG Export Plug-In . SVG Version: 6.00 Build 0)  -->
<!DOCTYPE svg PUBLIC "-//W3C//DTD SVG 1.1//EN" "http://www.w3.org/Graphics/SVG/1.1/DTD/svg11.dtd">
<svg version="1.1" id="Layer_1" xmlns="http://www.w3.org/2000/svg" xmlns:xlink="http://www.w3.org/1999/xlink" x="0px" y="0px"
	 width="100px" height="100px" viewBox="0 0 100 100" enable-background="new 0 0 100 100" xml:space="preserve">
<path fill="#613366" d="M68.5644836,17.2422791c0.2998657,0.1999207,0.5997925,0.4497986,0.8996582,0.699707
	c0.7996826,0.6997375,1.4494019,1.4994202,1.899231,2.3490601h-4.947998
	c0.0499878-0.1499329,0.0999146-0.2498779,0.1499023-0.3998413c0.249939-0.699707,0.2999268-1.3994446,0.1499634-2.1491394
	c-0.0499878-0.1499329-0.0499878-0.3498535-0.0999756-0.4997864l-0.4498291-0.9996033
	c0.249939,0.0999756,0.5498047,0.1999207,0.7996826,0.2998962C67.5149231,16.7924805,68.01474,16.9923706,68.5644836,17.2422791
	L68.5644836,17.2422791z M70.5137024,15.8428345l0.7996826,1.3994141c0.2999268,0.6497498,0.5498047,1.3494873,0.7496948,2.0991821
	c0.0499878,0.2998657,0.1499634,0.599762,0.1999512,0.9496155h4.5481567
	c-1.0495605-0.9496155-2.0991211-1.7492981-3.1487427-2.4490051c-0.5497437-0.349884-1.0495605-0.6497498-1.5993652-0.9996338
	L70.5137024,15.8428345L70.5137024,15.8428345z M54.6200829,12.0943604
	c-1.9492188-0.2499084-3.8484497-0.6497498-5.6976929-1.1495361c-1.7993164-0.4498291-3.6985474-0.7497253-5.6977539-0.8996582
	c-0.4498291-0.0499878-0.8496704-0.0499878-1.2495117-0.0499878l-5.7976685,0.0999756
	c0.7496948-0.2499084,1.5493774-0.4998169,2.3490601-0.8496704c1.2495117-0.599762,2.3990479-1.1995239,3.4486084-1.7492981
	c1.1495361-0.6497498,2.2491455-1.1995239,3.2987061-1.649353c0.2498779-0.1499329,0.5497437-0.3498535,0.8496704-0.4997864
	l-4.1483765,0.599762c-0.949585,0.2499084-1.7992554,0.5497742-2.598938,0.9996033
	c-0.2498779,0.0499878-0.4498291,0.1499329-0.699707,0.2998657c-0.2998657,0.1499634-0.5997925,0.2998962-0.8496704,0.4498291
	c-0.2498779-0.9496155,0.2498779-1.7492981,1.4494019-2.3990479c-2.7489014,0.6497498-4.3981934,1.8992615-5.0479736,3.6985168
	c-1.4993896-0.8996277-3.1487427-1.299469-4.8980103-1.2494812c-0.249939,0.0499878-0.5498047,0.0999451-0.7996826,0.1499329
	c-0.2998657,0-0.5997925,0.0499878-0.8496704,0.0999451c0.7996826,0.349884,1.5993652,0.6997375,2.3990479,1.0495911
	c0.2498779,0.1499329,0.5497437,0.349884,0.7996826,0.5497742c0.2498779,0.1499634,0.5497437,0.2998962,0.7996826,0.4498291
	c-1.5493774-0.0499878-3.0987549,0.0999756-4.6481323,0.4498291c-1.9492188,0.2998657-3.8485107,0.9995728-5.5977783,2.0491638
	c-0.2998657,0.1999207-0.5997925,0.4498291-0.8496704,0.6997375c-0.2998657,0.1499329-0.5997314,0.3498535-0.8496704,0.5997314
	l6.1975098-1.3994141l-3.6984863,2.6489258c-2.0991821,1.5993652-3.7485352,2.948822-4.9480591,4.0484009
	c-0.2998657,0.2498779-0.5497437,0.6497192-0.7996826,1.1495361h9.7461548
	c0.8496094-0.6497498,1.8492432-1.1995239,2.8988037-1.649353l-7.6968994,0.7996826
	c0.4998169-0.3498535,0.9995728-0.7496948,1.4993896-1.0995483c1.899231-1.1495667,3.8484497-2.1991272,5.7976685-3.2487183
	c1.4993896-0.3498535,2.8988647-0.9496155,4.248291-1.6993103c0.3498535-0.1999207,0.7496948-0.2998962,1.2495117-0.2998962
	l-3.3486328,1.9992065c-0.7496948,0.4997864-1.5493774,0.9996033-2.2990723,1.5493774
	c-0.1499634,0.0999756-0.2999268,0.2499084-0.4498291,0.3998413c1.3994141-0.3498535,2.7988892-0.6497498,4.1983032-0.8996582
	c1.3994141-0.3498535,2.848877-0.699707,4.2982788-0.9496155c0.3498535-0.0499878,0.7496948-0.0499878,1.1495361-0.0999451h0.699707
	l-8.1967163,5.1479187c0.7496948-0.2998657,1.4993896-0.599762,2.2490845-0.8496399
	c0.6497803-0.1499634,1.2495117-0.2499084,1.899292-0.2998962c0.6497192-0.0499878,1.2494507-0.0499878,1.899231-0.0999451
	l-1.9992065,1.299469h30.687748c0.0999146-0.599762,0-1.2495117-0.249939-1.9992065
	c-0.1499023-0.3498535-0.2998657-0.699707-0.4498291-1.0495911c-1.2494545-1.5493774-2.798893-2.7489014-4.5481606-3.4985962
	c-1.5993652-0.699707-3.2987061-1.2494812-5.1479492-1.6493225V12.0943604z M37.7268333,22.3901978
	c-0.0499878,0-0.0499878,0-0.0499878,0.0499878c-0.9995728,0.2499084-1.9492188,0.4998169-2.8988037,0.7996826
	c-4.6481934,1.4494324-8.8464966,3.6485291-12.5949707,6.6473389l5.5977173-7.197113l-7.1470947,3.2486877
	c1.4494019-1.4494019,2.8488159-2.948822,4.1983032-4.4482117c0.4498291-0.4498291,0.8996582-0.8496704,1.3994141-1.1995239
	h-9.7460938c-0.3498535,0.6497498-0.6997061,1.4994202-0.949584,2.5489807
	c1.2494497-0.7996826,2.7988882-1.6493225,4.6481314-2.5489807c-0.3998413,0.5497742-1.4993896,1.8992615-3.3486938,3.9984131
	c-1.8492422,2.0991516-3.2486563,3.9484253-4.2482901,5.54776c-0.9995728,1.5993652-0.1998901,1.3994446,2.4490356-0.5497437
	c2.6489248-1.9492493,3.0987539-1.7993164,1.3994131,0.3998108c-1.7492666,2.1491394-2.7988272,3.9984131-3.0487661,5.5477905
	l2.848876-2.7489014c0.3498535-0.2499084,0.7496948-0.3998413,1.0995483-0.5497742l11.0955811-0.6497498l-1.0995483,0.1499329
	c3.8984375-0.0499573,6.4473877-0.1499329,7.6968994-0.2498779c0.3498535-0.0499878,0.6497192-0.0499878,0.9995728-0.0999756
	c6.3974609-0.6497192,12.1951294-0.3498535,17.3430786,0.7996826l5.9976196,1.7492981
	c1.1495361,0.4498291,2.2490845,0.9996033,3.3486328,1.549408c0.0499878,0,0.0999756,0,0.1499634-0.0499878
	c5.0479774-2.5989685,11.1455116-3.7485046,18.2426796-3.3986511c-0.2998657-1.3494568-0.5997314-2.5989685-0.8996582-3.7984924
	c-0.0999146-0.2998657-0.1998901-0.5997314-0.2498779-0.8496399c-0.0499878-0.1499634-0.0499878-0.2499084-0.0999756-0.349884
	c-0.0499268-0.1499329-0.0499268-0.2998657-0.0999146-0.3998413c-0.4498291-1.4993896-1.0995483-2.9487915-1.8493042-4.3482361
	c-0.2498779-0.4997864-0.4997559-0.9496155-0.7496948-1.3994446c-0.1499023-0.0999756-0.2498779-0.1999207-0.3498535-0.2998657
	H72.263031c0.0499878,0.5497437,0,1.1495361-0.0999756,1.7492676c-0.1998901-0.3998108-0.3998413-0.7996521-0.5498047-1.1994934
	c-0.0499268-0.1999207-0.1499023-0.3998413-0.2498779-0.5497742h-4.947998
	c-0.2999268,0.699707-0.7496948,1.299469-1.3994751,1.7492981c-0.7996826,0.5497742-1.7492714,0.7996826-2.798893,0.7496948
	c0.4998169-0.1999207,0.949646-0.4498291,1.3994751-0.6997375c0.7496986-0.4997864,1.2495155-1.0995483,1.3994179-1.7992554
	H34.3282127l-3.7985229,2.3490601l7.097168-0.2998962l0.0999756,0.0499878V22.3901978z M44.7240257,24.9891968h0.0499878
	c0.4998169,0.0999756,0.9996338,0.1999207,1.4993896,0.2998657c1.649353,0.349884,3.2487183,0.949646,4.6981201,1.7992859
	c1.2495117,0.6497498,2.4490356,1.4994202,3.4985962,2.4490356c0.1999512,0.1999207,0.3998413,0.3998413,0.6497803,0.5497742
	c-0.249939-0.0999756-0.5498047-0.1999207-0.7996826-0.3498535c-1.1495361-0.6497498-2.3990479-1.0495911-3.7485352-1.2495117
	l1.3994751,2.1491394c-1.4993896-0.5497742-2.9488525-1.0995483-4.2982788-1.6993103
	c-1.649353-0.6497498-3.3986816-0.8496704-5.2979126-0.6497498c0.5498047,0.2499084,1.0995483,0.5497742,1.649353,0.8996277
	c0.7496948,0.349884,1.2994995,0.8496704,1.6993408,1.4494324c-1.3994751-0.3498535-2.7489014-0.5497742-4.0484009-0.4997864
	c-1.6993408,0.0499878-3.4486084,0.0999451-5.2479248,0.1499329c-1.6992798,0.1499329-3.3486328,0.1999207-4.947998,0.0999451
	c0.949646-0.3498535,1.8492432-0.699707,2.6489258-1.0495605c1.0496216-0.4998169,2.0491943-0.7496948,2.9988403-0.7496948
	c1.4494019-0.2499084,2.8988037-0.3998413,4.3482666-0.349884c-0.7996826-0.0999451-1.5993652-0.2499084-2.4490356-0.3998108
	c-1.3494873-0.3998413-2.4990234-0.6497498-3.4486084-0.7497253c2.0491333-0.699707,4.0983276-0.9496155,6.2474976-0.7996521
	c0.699707,0.0499573,1.3994141,0.1499329,2.0991211,0.3498535c1.649353,0.4497986,3.2987061,0.7496948,4.9480591,0.9996033
	c-0.4998169-0.349884-0.9996338-0.6997375-1.5493774-0.9996033c-0.8496704-0.6497498-1.6993408-1.1495361-2.5490112-1.5993652
	L44.7240257,24.9891968L44.7240257,24.9891968z M74.2622375,22.9400024
	c-0.5498047,0.4497986-1.0995483,0.9996033-1.5993652,1.5493774c-0.949646,1.0495605-1.7493286,2.1990967-2.4990234,3.548584
	c0.3499146-0.2499084,0.6997681-0.4498291,1.0996094-0.599762c0.949585-0.5497742,1.9992065-0.9996033,3.0987549-1.3494568
	c1.3494263-0.2998962,2.7489014-0.599762,4.1983032-0.949646l-2.9987793,2.7489014l2.9987793-0.4997864
	c-1.0495605,1.4494324-2.2490845,2.8488464-3.5985718,4.248291c0.0499878-0.2998962,0.0999756-0.599762,0.1499634-0.8496399
	c0.2498779-0.6997375,0.4498291-1.3994446,0.699707-2.0491943c-0.7996826,0.5497742-1.649353,0.9996033-2.4990234,1.3494568
	c-0.8995972,0.4498291-1.7992554,0.8496704-2.6489258,1.1995239c0.3498535-0.5497742,0.699707-0.9996033,1.0995483-1.4494324
	c0.6497803-0.7496948,1.3494873-1.4494019,2.0491943-2.0491638c-1.3494263,0.3998413-2.598938,1.0995483-3.7484741,2.0491638
	c-0.949646,0.8496704-1.8493042,1.4494324-2.7988892,1.8492737c0-0.599762,0.1499634-1.1995239,0.4998169-1.7492981
	c0.3998413-0.7496948,0.7996826-1.5993652,1.2494507-2.4990234c-0.7996826,0.9996338-1.7492676,1.9992065-2.7988892,2.9988098
	c-1.1994629,1.2495117-2.2490883,2.6989441-3.1486855,4.2982788c0.0499268-0.4497986,0.0999146-0.8496399,0.1499023-1.2494812
	c0.0999756-0.7496948,0.249939-1.4494324,0.3998413-2.1991272l2.3990517-3.3486633
	c0.3498535-0.2998962,0.699707-0.599762,1.0495605-0.8996582c1.0496216-0.9496155,2.1991577-1.6993103,3.3986816-2.2990723
	c1.1495361-0.6497192,2.4489746-1.2494812,3.7984619-1.7992859V22.9400024z"/>
<path fill="#8C4994" d="M66.0155334,27.9380188l-2.3990517,3.3486633c-0.1499634,0.7496948-0.2998657,1.4494019-0.3998413,2.1990967
	c-0.0499878,0.3998413-0.0999756,0.7996826-0.1499634,1.2495117c0.8996582-1.5993652,1.9492226-3.0487671,3.1487465-4.2982788
	c1.0495605-0.9996033,1.9992065-1.9992065,2.7988892-2.9987793c-0.4498291,0.8996277-0.8496704,1.7492676-1.2495117,2.4989929
	c-0.3498535,0.5497742-0.4998169,1.1495361-0.4998169,1.7492981c0.949646-0.3998413,1.8493042-0.9996033,2.7988892-1.8492737
	c1.1495361-0.9496155,2.3990479-1.6493225,3.7485352-2.0491638c-0.699707,0.599762-1.3994751,1.299469-2.0491943,2.0491638
	c-0.3998413,0.4498291-0.7496948,0.8996582-1.0995483,1.4494324c0.8496704-0.3498535,1.7492676-0.7496948,2.6489258-1.1995239
	c0.8496704-0.3498535,1.6993408-0.7996826,2.4990234-1.3494568c-0.249939,0.6497498-0.4498291,1.3494568-0.699707,2.0491638
	c-0.0499878,0.2499084-0.0999756,0.5498047-0.1499634,0.8496704c1.3494263-1.3994446,2.5489502-2.7988892,3.5985718-4.248291
	L75.561676,27.888031l2.9988403-2.7488708c-1.4494629,0.3498535-2.848877,0.6497192-4.1983643,0.9496155
	c-1.0995483,0.3498535-2.1491089,0.7996521-3.0987549,1.3494568c-0.3998413,0.1499329-0.7496948,0.3498535-1.0995483,0.5997314
	c0.7496948-1.3494263,1.5493774-2.4989929,2.4990234-3.5485535c0.4998169-0.5497742,1.0495605-1.0995789,1.5993652-1.5493774
	c-1.3494873,0.5497742-2.6489868,1.1495361-3.7985229,1.7992859c-1.1995239,0.5997314-2.3490601,1.3494568-3.3986206,2.2990723
	C66.7152405,27.3382568,66.365387,27.6381531,66.0155334,27.9380188L66.0155334,27.9380188z"/>
<polygon fill="#484826" points="44.7240257,24.9891968 44.7740135,25.0391846 44.7740135,24.9891968 44.7240257,24.9891968 "/>
<path fill="#8C4994" d="M46.2734032,25.2890625c-0.4997559-0.0999756-0.9995728-0.1999512-1.4993896-0.2998962v0.0499878
	c0.8496704,0.4497986,1.6993408,0.9496155,2.5490112,1.5993347c0.5497437,0.2998962,1.0495605,0.6497498,1.5493774,0.9996338
	c-1.649353-0.2499084-3.2987061-0.5498047-4.9480591-0.9996338c-0.699707-0.1998901-1.3994141-0.2998657-2.0991211-0.3498535
	c-2.1491699-0.1499329-4.1983032,0.0999756-6.2474976,0.7996826c0.949585,0.0999756,2.0991211,0.3498535,3.4486084,0.7496948
	c0.8496704,0.1499634,1.649353,0.2998962,2.4490356,0.3998413c-1.4494019-0.0499878-2.8988647,0.0999756-4.3482666,0.3498535
	c-0.949646,0-1.9492188,0.2499084-2.9987793,0.7497253c-0.7996826,0.3498535-1.6993408,0.699707-2.6489868,1.0495911
	c1.5993652,0.0999451,3.2487183,0.0499573,4.9480591-0.0999756c1.7992554-0.0499878,3.548584-0.0999756,5.2478638-0.1499634
	c1.2994995-0.0499573,2.6489868,0.1499634,4.0484009,0.4998169c-0.3998413-0.599762-0.949646-1.0995483-1.6993408-1.4494019
	c-0.5497437-0.349884-1.0995483-0.6497498-1.649292-0.8996582c1.899231-0.1999207,3.6484985,0,5.2978516,0.6497192
	c1.3494873,0.5997925,2.7988892,1.1495667,4.2982788,1.6993408l-1.3994141-2.1491394
	c1.3494263,0.1999207,2.598938,0.599762,3.7484741,1.2494812l0.1499634-0.1998901
	c-1.0496216-0.949646-2.2491455-1.7993164-3.4985962-2.4490356c-1.4494629-0.8496704-3.0488281-1.4494324-4.6981201-1.7992859
	L46.2734032,25.2890625z"/>
<path fill="#484826" d="M55.1198997,30.0871582c-0.249939-0.1499634-0.4498291-0.349884-0.6497192-0.5498047l-0.1499634,0.1999512
	C54.5700951,29.8872375,54.8699608,29.9871826,55.1198997,30.0871582L55.1198997,30.0871582z"/>
<path fill="#8C4994" d="M34.2282372,13.0939331c-0.4998169,0-0.8996582,0.0999756-1.2495117,0.2998657
	c-1.3494873,0.7497253-2.7489014,1.3494873-4.248291,1.6993408c-1.9492188,1.0495605-3.8984375,2.0991516-5.7976685,3.2486877
	c-0.4998169,0.349884-0.9996338,0.7497253-1.4993896,1.0995789l7.6968994-0.7996826
	c-1.649353,0.6497192-3.0987549,1.5993652-4.2982788,2.8488464c-1.3494873,1.4994202-2.7489014,2.9988098-4.1983032,4.4482117
	l7.1470947-3.2486877l-5.5977173,7.197113c3.7484741-2.9987793,7.9467773-5.1979065,12.5949097-6.6473389
	c0.949646-0.2998657,1.899292-0.5497742,2.8988647-0.7996826l-0.0499878-0.0999451l-7.097168,0.2998962l5.7977295-3.6485596
	c-0.6497803,0.0499878-1.2495117,0.0499878-1.899292,0.0999756c-0.6497192,0.0499878-1.2494507,0.1499329-1.899231,0.2998657
	c-0.7496948,0.2499084-1.4993896,0.5497742-2.2490845,0.8496704l8.1967163-5.1479492h-0.699707
	c-0.3998413,0.0499878-0.7996826,0.0499878-1.1495361,0.0999756c-1.4494629,0.2499084-2.8988647,0.599762-4.2982788,0.9496155
	c-1.3994751,0.2499084-2.7988892,0.5497742-4.1983643,0.8996277c0.1499634-0.1499329,0.2999268-0.2998657,0.4498291-0.3998108
	c0.7496948-0.5497742,1.5493774-1.0495911,2.2990723-1.549408l3.3486938-1.999176V13.0939331z"/>
<path fill="#53532D" d="M37.7268333,22.3901978l-0.0999756-0.0499573l0.0499878,0.0999451
	C37.6768456,22.3901978,37.6768456,22.3901978,37.7268333,22.3901978L37.7268333,22.3901978z"/>
<path fill="#B93E7B" d="M46.1235008,5.3470459c-0.2998657,0.1499329-0.5997925,0.3498535-0.8496704,0.4997864
	c-1.0495605,0.4498291-2.1491089,0.9996033-3.2987061,1.649353c-1.0495605,0.5497742-2.1990967,1.1495361-3.4486084,1.7492981
	c-0.7996826,0.3498535-1.5993652,0.599762-2.3490601,0.8496704l5.7976685-0.0999756c0.3998413,0,0.7996826,0,1.2495117,0.0499878
	c1.9992065,0.1499329,3.8984375,0.4498291,5.6977539,0.8996582c1.8492432,0.4997864,3.7484741,0.8996277,5.6976929,1.1495361
	c1.8492432,0.3998413,3.548584,0.9496155,5.1479492,1.6493225c1.7492676,0.7497253,3.2987061,1.9492493,4.5481606,3.4986267
	c0.1499634,0.3498535,0.2999268,0.699707,0.4498291,1.0495605c0.5997925,1.649353,0.1999512,2.8988342-1.1495399,3.7984924
	c-0.4498291,0.2499084-0.8995972,0.4997864-1.3994141,0.699707c1.0495605,0.0499878,1.9992104-0.1999207,2.798893-0.7496948
	c0.7496948-0.5497742,1.2495117-1.299469,1.5493774-2.1491394c0.2498779-0.699707,0.2998657-1.3994446,0.1499023-2.1491394
	c-0.0499878-0.1499329-0.0499878-0.3498535-0.0999146-0.4997864l-0.4498291-0.9996033
	c0.2498779,0.0999451,0.5497437,0.1999207,0.7996826,0.2998657c0.5497437,0.2499084,1.0495605,0.4498291,1.5993652,0.6997375
	c0.2998657,0.1999207,0.5997314,0.4497986,0.8995972,0.699707c0.949646,0.8496704,1.6993408,1.7992859,2.1491699,2.8988342
	c0.1499023,0.3998413,0.3498535,0.7996826,0.5497437,1.1995239c0.1499634-0.9496155,0.1499634-1.8492737-0.0999146-2.6989136
	c-0.1999512-0.7497253-0.4498291-1.4494324-0.7496948-2.0991516l-0.7996826-1.3994446l1.5493774,0.9996033
	c0.5497437,0.3498535,1.0495605,0.6497192,1.5993652,0.9996033c1.1995239,0.7996521,2.3490601,1.6993103,3.4985962,2.7488708
	c1.649292,0.4998169,3.2486572,0.3998413,4.7980347-0.2498779c1.3494873-0.6497498,2.3990479-1.4994202,3.1487427-2.6489563
	c-1.3994141,0.4997864-2.8488159,0.7496948-4.3482666,0.7996826c-0.7996826-0.2499084-1.4993896-0.5497742-2.0491333-0.9996033
	c-0.7496948-0.5497742-1.4993896-0.9996033-2.2490845-1.3494568c1.4993896,0.1999207,2.9487915,0.2998962,4.3981934,0.2998962
	c1.2994995-0.1499634,2.6489258-0.349884,3.9984131-0.599762c1.2495117-0.1999207,2.4990234-0.5497742,3.7484741-0.9996033
	c1.2495117-0.4498291,2.3490601-1.0495911,3.2987061-1.8492737c0.9995728-0.8496399,1.899231-1.7492981,2.6489258-2.7988586
	c0.949646-1.1995239,1.7493286-2.4990234,2.4490356-3.8984375c-0.6497192,1.1495361-1.5993652,2.0491638-2.7988892,2.598938
	c-0.699707,0.3498535-1.4494019,0.599762-2.2490845,0.8496704c-1.649353,0.2499084-3.2487183,0.3998413-4.7980957,0.4498291
	c-1.4494019,0.0499573-2.9487915-0.0499878-4.4481812-0.1999512c-1.1995239-0.0499573-2.3990479-0.1499329-3.6485596-0.2498779
	c-0.7996826,0.0499878-1.5993652,0-2.3490601-0.1999207c-1.5493774-0.2499084-2.9487915-0.8496704-4.1983032-1.7492981
	c1.4993896-0.4498291,3.1487427-0.6997375,4.8980103-0.7497253c1.7493286-0.0499573,3.2487183-0.2998657,4.49823-0.6497192
	c1.1995239-0.349884,2.0991211-0.9496155,2.6989136-1.6993408c0.5497437-0.7496948,1.6992798-1.3994446,3.4486084-1.8492432
	c-2.1491699,0-3.7484741,0.2998657-4.6981201,0.9496155c-0.9996338,0.6497192-2.1491699,1.0495605-3.4486084,1.2495117
	c-1.2994995,0.1998901-3.1987305,0-5.6977539-0.5498047c-0.7496948-0.1499329-1.4993896-0.2998657-2.1491089-0.4497986
	c-1.2495117-0.1999207-2.598999-0.349884-4.0983887-0.4998169s-3.2486572-0.3498535-5.1978798-0.4997864
	c-1.9992065-0.1999207-4.0983887-0.2499084-6.2474976-0.0999756c-2.1491699,0.0999756-3.9984131,0.349884-5.4978027,0.7996826
	C49.5221214,4.1975098,47.8728294,4.6973267,46.1235008,5.3470459L46.1235008,5.3470459z M51.8711815,5.2970581
	c0.8496704-0.2498779,2.2490845-0.4498291,4.1983032-0.599762s4.0983887-0.2499084,6.5474243-0.2998657
	c0.7496948,0,1.4494057,0.0999451,2.1491127,0.2499084c2.4990234,0.4497986,4.9480591,0.5997314,7.2970581,0.5497742
	l-7.1970825,1.2494812c0.2998657,0,0.5997314,0,0.8996582,0.0499878c2.0491333,0.2998657,3.8984375,1.1495361,5.4478149,2.4989929
	c2.0491943,1.7492981,4.3981934,2.5489807,7.1470947,2.4989929c-0.8496094,0.1999512-1.649292,0.2998962-2.3989868,0.349884
	c-2.1491699,0.0499878-4.2982788-0.2499084-6.4474487-0.8496704c0.3998413,0.2499084,0.7996826,0.4498291,1.1995239,0.6997375
	c1.6993408,1.0495605,3.2487183,2.2990723,4.5981445,3.6985168c-1.2494507-0.8496704-2.5489502-1.3994446-3.9484253-1.649353
	c-1.5993652-0.4497986-3.1487427-0.9996033-4.6981201-1.6493225l2.848877,3.6984863
	c-0.3498535-0.4497986-1.0495605-0.9995728-1.9992065-1.6493225c-1.4494019-0.9996033-2.9987793-1.6993103-4.6481361-2.0991516
	l1.6493568,2.7988586c-0.9996376-0.6497192-1.9492226-1.2494812-2.8988686-1.7992859
	c-1.0495605-0.5497742-2.0491333-0.9995728-3.0987549-1.299469c-1.7492676-0.4497986-3.3486328-1.0495911-4.8980103-1.7992859
	c0.6497192-0.2498779,1.2994385-0.3498535,1.9492188-0.2998657c2.1491089-0.3998413,4.2982788-0.4998169,6.5473633-0.2998962
	c-0.3498535-0.1499329-0.6497192-0.2998962-0.9995728-0.4497986c-1.8493042-0.6497498-3.6985474-0.9996338-5.5477905-0.9996338
	c-1.899231,0-3.7485352,0.2499084-5.5977783,0.7996826l4.3982544-2.1990967c-1.7493286,0-4.1983032,0.2998657-7.2971191,0.9496155
	c0.1999512-0.0999451,0.4498291-0.2499084,0.7497559-0.3998413c0.6497192-0.3998413,1.2994385-0.7496948,1.899231-0.9996033
	C50.2718163,5.7968445,51.0215111,5.5469666,51.8711815,5.2970581L51.8711815,5.2970581z"/>
<path fill="#C85991" d="M56.0694847,4.6972961c-1.9492188,0.1499329-3.3486328,0.349884-4.1983032,0.599762
	c-0.8496704,0.2499084-1.5993652,0.4997864-2.1491699,0.7496948c-0.5997314,0.2499084-1.2495117,0.599762-1.899231,0.9996033
	c-0.2998657,0.1499329-0.5497437,0.2998962-0.7496948,0.3998413c3.0987549-0.6497498,5.5477905-0.9496155,7.2970581-0.9496155
	l-4.3981934,2.1990967c1.8492432-0.5497742,3.6984863-0.7996826,5.5977173-0.7996826
	c1.8493042,0,3.6985474,0.349884,5.5477905,0.9996338c0.3498535,0.1499329,0.6497803,0.2998657,0.9996338,0.4497986
	c-2.2491455-0.1999207-4.3982544-0.0999451-6.5474243,0.2998962c-0.6497192-0.0499878-1.2994385,0.0499878-1.9492188,0.2998657
	c1.5493774,0.7496948,3.1487427,1.3494568,4.8980713,1.7992859c1.0495605,0.2998962,2.0491943,0.7496948,3.0987549,1.299469
	c0.949585,0.5498047,1.899231,1.1495667,2.8988075,1.7992859l-1.6492958-2.7988586
	c1.6492958,0.3998413,3.1987343,1.0995483,4.6481361,2.0991516c0.949585,0.6497498,1.649353,1.1995239,1.9992065,1.6493225
	l-2.848877-3.6984863c1.5493774,0.6497192,3.0987549,1.1994934,4.6981201,1.6493225
	c1.3994141,0.2499084,2.6989136,0.7996826,3.9484253,1.649353c-1.3494873-1.3994446-2.8988647-2.6489563-4.5981445-3.6985168
	c-0.3998413-0.2499084-0.7996826-0.4498291-1.1995239-0.6997375c2.1491089,0.599762,4.2982788,0.8996582,6.4473877,0.8496704
	c0.7496948-0.0499878,1.5493774-0.1499329,2.3990479-0.349884c-2.7489014,0.0499878-5.0979614-0.7496948-7.1471558-2.4989929
	c-1.5493774-1.3494568-3.3986206-2.1991272-5.4478149-2.4989929c-0.2998657-0.0499878-0.5997314-0.0499878-0.8996582-0.0499878
	l7.1971436-1.2494812c-2.3490601,0.0499573-4.7980957-0.0999756-7.2970581-0.5497742
	c-0.699707-0.1499634-1.3994789-0.2499084-2.1491737-0.2499084C60.1678734,4.4473877,58.0187035,4.5473633,56.0694847,4.6972961
	L56.0694847,4.6972961z"/>
<path fill="#D6D9E4" d="M17.3349876,31.9364014c-0.3498535,0.3498535-0.6497192,0.699707-0.949585,1.0995483
	c-2.5490103,2.848877-4.5982046,6.0475769-6.0975943,9.5961609l1.4494629,1.3494568l1.5993042-2.1990967
	c1.7493286-2.249115,3.1487417-3.8984375,4.1983633-4.9480286c0.1998901-0.0499878,0.3998413-0.0499878,0.5997314-0.0999756
	c0.3998413-0.0499573,0.7996826-0.0499573,1.1495361-0.0499573c1.649353,0,3.0487671,0.0999451,4.0983887,0.2998657
	c1.0495605,0.2499084,2.2990723,0.699707,3.6984863,1.3994446c2.0491943,0.9496155,4.6981201,3.3486633,7.9468384,7.2471008
	l1.1495361,1.8492432c1.0495605,0.949646,1.899231,1.6993408,2.598938,2.2991028l-2.0991211-18.4926147L24.33218,31.7364807
	l2.9988403-0.2998962l1.0995483-0.1499329L17.3349876,31.9364014L17.3349876,31.9364014z"/>
<path fill="#A7ADC7" d="M19.2842064,36.6845093c-0.3498535,0-0.7496948,0-1.1495361,0.0499878
	c-0.1998901,0.0499878-0.3998413,0.0499878-0.5997314,0.0999451c-1.0496216,1.0495911-2.4490347,2.6989441-4.1983633,4.9480286
	l-1.5993652,2.1991272l0.7496948,0.6497498l0.6497803-0.7996826l0.9995728-1.3494873l3.6985464-4.947998
	c2.4989624-0.1499634,5.1479492,0.5497742,7.9967651,2.0991516c2.848877,1.4494324,5.3978882,3.2486877,7.6469727,5.3478699
	c0.9995728,0.9496155,1.899231,1.7492676,2.6989136,2.4989929l-1.1495361-1.8492737
	c-3.2487183-3.8984375-5.897644-6.2974854-7.9468384-7.2471008c-1.3994141-0.699707-2.6489258-1.1495361-3.6984863-1.3994446
	C22.3329735,36.7844543,20.9335594,36.6845093,19.2842064,36.6845093L19.2842064,36.6845093z"/>
<path fill="#613366" d="M19.4341698,62.8240356c-0.7496948,1.899231-1.3494873,3.7984619-1.7993164,5.7476959h-5.2478628
	c1.899231-1.2994843,3.6984854-2.6989288,5.3478384-4.2483063C18.2846336,63.8236084,18.8843651,63.3238525,19.4341698,62.8240356
	L19.4341698,62.8240356z M80.5596619,50.7288818c-0.699707,0.1499329-1.4993896,0.2498779-2.3490601,0.2998657
	c-1.5493774,0.0499878-3.0487671,0.0499878-4.4981689,0.0499878c-1.5493774,0.0499878-3.0487671,0-4.4482422-0.1499329
	c-0.0499878-0.0499878-0.0999146-0.0499878-0.1499023-0.0999756c-0.3498535-0.4497986-0.6497803-0.7996521-0.9996338-1.0995483
	c-2.7489014-4.1983337-5.8476601-4.248291-9.2962685-0.0999451l-1.3994141,1.2494812l-18.6425781,0.0999451
	c-0.699707-0.5997314-1.5493774-1.3494263-2.598938-2.2990723c-0.7996826-0.7496948-1.6993408-1.5493774-2.6989136-2.4989929
	c-2.2490845-2.0991516-4.7980957-3.8984375-7.6469727-5.3478699c-2.8488159-1.5493774-5.4978027-2.2490845-7.9967651-2.0991516
	l-3.6985464,3.7485046l-0.9995728,1.3494568c-0.949646,2.7988586-1.9992065,5.0979614-3.2487183,6.8972473
	c-0.7996826,1.1495361-1.6993408,2.1991272-2.6489263,3.2486877c-0.7496948,0.7996826-1.3494873,1.3994446-1.7993164,1.7492981
	c3.3486943-0.699707,5.79773-1.8492432,7.2471318-3.4985962c-1.1495361,2.948822-2.4490356,5.7976685-3.8484497,8.5465698
	c-1.8992314,3.6485596-3.1987309,6.2475128-3.9484258,7.7969055h0.2998657
	c0.7496948-0.9496155,1.7493286-1.949234,3.0487676-3.0987701c1.4494629-1.1495514,2.9488525-2.1991119,4.5482178-3.248703
	c0,0.0499878,0,0.0999451,0,0.1499329s0,0.0499878,0,0.0999756c-0.8496704,1.3994446-1.5993652,3.4486237-2.2491455,6.0975647
	h1.7993164c2.7489014-3.4486237,4.5481558-7.3470764,5.3478384-11.6953125
	c-2.1990957,1.6993103-4.1483145,3.5985413-5.8976431,5.6977234c0.249939-0.6497803,0.5498047-1.2495117,0.7996826-1.8492737
	c1.9992065-4.4981995,3.6985464-8.9963989,5.0979605-13.5445862c-0.4498291,0.3498535-0.8996582,0.6497498-1.3494263,0.8996582
	c-1.0496206,0.6497192-2.2491446,1.1495361-3.5985708,1.3994141h-0.0499878v-0.0499878
	c0.3998413-0.3498535,0.9995728-1.4494019,1.8492432-3.2986755c0.7996826-1.8492737,2.1991568-3.5985413,4.1983023-5.1479187
	c-0.6497192,0.8996277-1.5493774,2.7489014-2.6989136,5.5977478c2.6489868-2.1991272,4.6981201-3.3986511,6.147583-3.6485291
	c-2.3990479,4.4981995-4.3482666,9.0463867-5.7977295,13.6445312l6.5474243-4.5981445
	c-0.7496948,2.8488464-2.0991821,5.9975891-3.9484253,9.3462524c1.8492432-0.8496704,3.1987305-1.649353,4.0983276-2.3490601
	c1.4494629-1.1995239,3.1487427-2.0991516,4.9980469-2.6489258c-3.0488281,3.4486084-5.3479004,7.3470459-6.8972778,11.745285
	c0.949646-1.1995087,1.9492188-2.3990326,2.9988403-3.5985565c0.9995728-1.1495361,2.1990967-1.9992065,3.5985107-2.6489258
	c-0.7996826,1.7492676-1.5493774,3.5485687-2.2490845,5.4977875c-0.1499634,0.3998413-0.2498779,0.7996674-0.3998413,1.2494965
	h13.5446167c-1.2495117-3.248703-0.8996582-6.0975647,1.0995483-8.5965576
	c0.8995972-1.1495361,2.0491333-1.7992859,3.3986206-2.0491638c2.0491943-0.249939,4.2982788,0.2498779,6.7473145,1.4993896
	c2.4490356,1.1495361,5.3478394,2.0991516,8.6965332,2.7489014c3.3986206,0.5997314,6.5473671,0.0999451,9.4461708-1.4494324
	c2.1491699-1.2494812,4.3982544-2.4490051,6.6473389-3.548584c1.3994751-0.6997375,2.6989746-0.4997864,3.8984375,0.599762
	c1.2994995,1.1995239,2.1991577,2.5489807,2.6489868,4.0983582c0.699707,2.1991272,1.0495605,4.4482117,1.0495605,6.6973267
	h3.3486938c-0.0999756-0.4498291-0.1499634-0.8996429-0.1999512-1.349472
	c-0.3498535-2.5489655-0.699707-4.9980011-0.9995728-7.4470062c-0.3998413-3.1487427-0.6997681-6.3474731-0.949646-9.5961609
	c0-0.0499878,0-0.0499878,0-0.0499878c-0.8496704,0.349884-1.8492432,0.5497742-2.9487915,0.599762H80.5596619z
	 M38.6764793,68.6217346c0.8496704,2.0491638,1.8492432,4.0483704,3.0987549,5.897644
	c0.5997314,0.9496155,1.2495117,1.899231,1.9492188,2.7988739c2.3490601,2.8988342,5.3478394,4.9480133,9.0463867,6.0975494
	c2.4490356,0.7996826,4.9979858,1.2994843,7.5969238,1.5493927l-2.6989136,1.6993103
	c1.1495361-0.0999603,2.3490601-0.1999207,3.4985962-0.2498932c1.0996094-0.1499481,2.0991821-0.4998016,2.9488564-1.1495361
	c-0.2498817,0.2998657-0.4998207,0.5997467-0.7996864,0.8496552c-0.3498535,0.299881-0.7496948,0.5497742-1.1995239,0.7496948
	c-0.5498047,0.3498535-1.1495361,0.6497345-1.6993408,0.8996429c0.949646,0.1999207,1.8493042,0.0999603,2.6989136-0.3498688
	c0.9496498-0.4498291,1.849308-0.999588,2.6989174-1.5493774c-0.0499268,0.3498535-0.0999146,0.699707-0.1499023,1.0495758
	c-0.1499634,0.5497894-0.3498535,1.0495758-0.5498047,1.5493774l2.1991577-1.9992065l1.6992798,1.7493134l0.4498291-1.7493134
	l2.9488525,1.2494965l-1.9492188-1.8992462l3.6484985,0.1999359l-2.0991211-0.8496552l4.9979858-0.7497101l-4.9979858-0.4498291
	c1.2994385-0.4998016,2.5489502-1.1495514,3.7984619-1.9492188c1.1495361-0.7996674,2.0991211-1.6993256,2.9487915-2.648941
	c1.4994507-1.7492981,2.4990234-3.848465,3.0488281-6.2474976c0.3498535-1.5493774,0.4997559-3.0487823,0.4997559-4.548172
	h3.3486938c0.1499023,1.3494568,0.3998413,2.6489258,0.699707,3.94841c0.5498047,2.4490051,1.1495361,4.848053,1.7992554,7.197113
	c0.6497803,2.2990875,1.649353,4.5981598,3.0987549,6.8972473c1.3994751,2.3490601,3.2987061,3.0987549,5.7477417,2.2990875
	c-1.2994995,2.5489655-3.1487427,3.0987549-5.4978027,1.7492981c-2.3990479-1.3494568-4.2982788-1.8492584-5.6477661-1.3994446
	c1.5493774,0.8996429,3.2487183,2.8988495,5.1479492,5.9976044c-1.1495361-1.1495361-3.9984131-1.9492035-8.6465454-2.3990326
	c-3.1487427-0.0499878-6.3974609-0.399826-9.7960815-1.0495758l5.8476562,3.0487823
	c-4.1483154,0.0499725-7.1970825-0.2498932-9.1463013-0.8996429c-2.1491699-0.7996826-4.2983398-1.4993896-6.5474281-2.0991516
	c-1.0995483-0.2498932-2.2490845-0.5497742-3.4985962-0.8996429l2.4490356,2.8488617
	c-2.3490601-0.0999451-4.7481079-0.399826-7.1471558-0.8496552c-2.0991211-0.3498688-4.0983276-0.9996033-6.0475464-1.9492188
	h-0.0499878c-0.0499878-0.0499878-0.0999756-0.0499878-0.1499634-0.0999603
	c-1.2495117-0.5997772-2.5489502-1.2494965-3.7984619-1.9992065c0,4.0983582,1.7492676,7.2470856,5.197937,9.4462128
	c-3.6485596-0.6497192-6.1975708-1.4993896-7.7469482-2.5489655s-3.298645-3.3486481-5.1478882-6.9971924
	c-3.4986572,4.848053-6.4974365,7.5469666-9.0463867,7.9967957c-2.5490112,0.4498291-4.9980469,0.4998016-7.2971191,0.0999603
	c2.4990234-0.7496948,4.2982788-1.6993256,5.3479004-2.8488617c1.0495605-1.1495361,1.7492676-2.7488861,1.9992065-4.6981201
	c-1.0496216,0.5997772-2.2991333,1.349472-3.6985474,2.2990875c-1.3994141,0.8996582-3.0487671,1.5993652-4.9979858,2.1491547
	c-1.899231,0.5497742-4.3982534,0.3498383-7.5469961-0.5497894c3.4486084-2.1491394,5.5477896-4.248291,6.2474966-6.197525
	c0.699707-1.9492188,0.9995728-3.7485046,0.949646-5.3478546c-1.6993408,2.1491241-3.9984121,3.5485687-6.8472891,4.1483307
	c-1.5493774,0.299881-3.1487427,0.3998413-4.7980962,0.3498688c0.3498535-0.1499481,0.6497803-0.2998962,0.9996343-0.4498291
	c1.8492432-1.1495361,3.1487427-2.7988739,3.7984619-4.8980408c0.5997925-2.0491943,0.8996582-4.0983582,0.8496704-6.197525
	c0-0.599762,0-1.1995087,0-1.7492981c-0.2998657,0.2998657-0.5997925,0.6497345-0.949646,0.999588
	c-1.6992798,1.7493134-2.7988281,3.1487427-3.3486328,4.0983582c0.4498291-1.3494568,0.9995728-3.7984772,1.649353-7.3470612
	c0.1499023-0.7496948,0.2998657-1.4494171,0.4498291-2.0991516h1.7992554c0,0,0,0-0.0499878,0.0499725
	c0.0499878-0.0499725,0.0499878-0.0499725,0.0999756-0.0499725h5.2478628
	c-0.3998413,1.6493378-0.699707,3.2986755-0.8995972,4.9980011c-0.1499634,1.1995239-0.2999268,2.4490204-0.3998413,3.6985168
	l5.4478149-8.4965973c-0.4998169,3.4985809-0.3998413,6.9971924,0.2498779,10.445816
	c0.5997925,3.4486237-1.5493774,7.496994-6.4973745,12.0951538c4.4481802-1.8492584,7.2970572-4.3482666,8.5965567-7.496994
	c1.2495117-3.1987305,1.9992065-5.0479736,2.1990967-5.5977631c-0.0499878,2.2490997-0.5997314,4.2483063-1.649353,6.0475769
	c-0.2498779,0.4498291-0.4997559,0.9496155-0.7496948,1.3994446c3.0488281-0.7996674,5.5977783-3.248703,7.5469971-7.3470612
	c0.949646,4.9480133,0.4998169,8.8464661-1.2495117,11.7453003c2.8988647-4.4981995,4.3982544-7.1471558,4.5482178-7.9468231
	c0.1998901-1.1495361,0.2998657-2.2990875,0.2998657-3.3986511h0.0499878
	c0.4498291,2.5489807,1.6992798,5.3478546,3.7484741,8.4965973c1.5493774,2.3490753,3.3486938,4.4981995,5.3479004,6.497406
	c-0.1999512-0.4498291-0.5498047-1.2495117-1.0496216-2.2990875c-0.8496704-1.7492981-1.3494263-3.1487427-1.5493774-4.2982788
	c-0.1499023-0.8996277-0.3498535-2.1991119-0.5997314-3.94841c-0.1499634-0.7497101-0.1999512-1.3494568-0.249939-1.7492981
	c0.5498047,1.7492828,3.4985962,4.0983429,8.746521,7.0971527c-2.6489258-3.1487427-4.248291-5.2978973-4.7481079-6.3474731
	c-0.5497437-1.1995087-0.7996826-1.7992706-0.7996826-1.8492584h-0.0499878v3.248703
	c-0.4498291,0-1.3994141-0.999588-2.8988037-2.9987946c-0.0499878-0.0499878-0.0999756-0.1499481-0.1999512-0.1999207
	c-1.5993652-2.1491547-2.4490356-3.3486633-2.5489502-3.4986115c-0.0499878,0.4498291,0.0499878,1.5993652,0.1998901,3.4486237
	c0.1999512,1.6493378,0.3998413,2.7489014,0.5498047,3.2986908c-0.249939-0.7497101-1.0496216-2.2990875-2.3990479-4.7481079
	c-1.4993896-2.7489166-2.2490845-4.4981995-2.2490845-5.1479492l-0.1499634-0.0499725
	c-0.0499878,0.2498932-0.4498291,1.7992859-1.0995483,4.548172c-0.2498779-1.3994293-0.3998413-2.5489807-0.4498291-3.4486237
	c-0.3998413,0.5497894-0.7996826,1.1495361-1.2495117,1.6993256c-0.0999756,0.0999603-0.1998901,0.1999207-0.2998657,0.3498688
	c-0.0499878,0.0499725-0.0999756,0.1499329-0.1499634,0.1999207c-0.3498535,0.4498138-0.699707,0.8996277-1.0495605,1.3494568
	l-0.5498047-8.0967712v-0.0499725l-0.0499268,0.0499725c-1.649353,1.4494324-3.0988159,3.0487823-4.3982544,4.8980408
	c-0.5498047,0.7497101-1.0496216,1.4994049-1.5493774,2.249115c0.2498779-3.0487823,0.8496704-5.9976044,1.7492676-8.8464508
	h13.5446167c0,0,0,0,0,0.0499725V68.6217346z"/>
<path fill="#613366" d="M5.1898465,68.5717316H4.8899808c-0.2998657,0.599762-0.4998169,1.0495758-0.5997314,1.299469
	C4.5401273,69.4713593,4.839993,69.0215454,5.1898465,68.5717316L5.1898465,68.5717316z"/>
<polygon fill="#53532D" points="12.6868563,49.4794006 12.7368441,49.4794006 12.6868563,49.4294128 12.6868563,49.4794006 "/>
<path fill="#8C4994" d="M12.6868563,49.4294128l0.0499878,0.0499878c1.3494263-0.2499084,2.5489502-0.7497253,3.5985708-1.3994446
	c0.4497681-0.2499084,0.8995972-0.5497742,1.3494263-0.8996582c-1.3994141,4.5482178-3.0987539,9.0463867-5.0979605,13.5446167
	c-0.2498779,0.5997314-0.5497437,1.1994934-0.7996826,1.8492432c1.7493286-2.0991821,3.6985474-3.9984131,5.8976431-5.6976929
	c-0.7996826,4.3482361-2.598937,8.2966614-5.3978262,11.7452698c1.9492188-1.2994843,3.7484732-2.7489014,5.447814-4.2982788
	c0.5498047-0.4997864,1.1495361-0.9996033,1.6993408-1.4993896c-1.3494873,3.4985962-2.2491455,7.0971527-2.6989136,10.745697
	c-0.1499634,1.1995087-0.2999268,2.4490051-0.3998413,3.6985168l5.4478149-8.4965973
	c-0.4998169,3.4985962-0.3998413,6.9972076,0.2498779,10.445816c0.5997314,3.4486237-1.5493774,7.496994-6.4973745,12.0951538
	c4.4481802-1.8492584,7.2970572-4.3482666,8.5965567-7.496994c1.2494507-3.1987305,1.9992065-5.0479889,2.1990967-5.5977631
	c-0.0499878,2.249115-0.5997314,4.248291-1.649353,6.0475769c-0.2498779,0.4498291-0.4997559,0.9496155-0.7496948,1.3994446
	c3.0487671-0.7996826,5.5977783-3.248703,7.5469971-7.3470612c0.949585,4.9480286,0.4998169,8.8464661-1.2495117,11.7453003
	c2.8988647-4.4981995,4.3982544-7.1471405,4.5481567-7.9468231c0.1999512-1.1495361,0.2999268-2.2990875,0.2999268-3.3986511
	V78.567749c0,0.0499725,0,0.0999603,0.0499878,0.1499329c0.4497681,2.5489807,1.6992798,5.3478699,3.7484741,8.4966125
	c1.5493774,2.3490601,3.3486328,4.4981995,5.3478394,6.497406c-0.1998901-0.4498291-0.5497437-1.2494965-1.0495605-2.2990875
	c-0.8496704-1.7492981-1.3494873-3.1487427-1.5493774-4.2982788c-0.1499634-0.8996277-0.3498535-2.1991272-0.5997925-3.94841
	c-0.1499023-0.7497101-0.1998901-1.3494568-0.2498779-1.7492981c0.5498047,1.7492981,3.4985962,4.0983429,8.746521,7.0971527
	c-2.6489258-3.1487427-4.248291-5.2978973-4.7481079-6.3474731c-0.5498047-1.1995087-0.7996826-1.7992706-0.7996826-1.8492584
	h-0.0499878v3.248703c-0.4498291,0-1.3994141-0.999588-2.8988647-2.9987946
	c-0.0499268-0.0499878-0.0999146-0.1499481-0.1998901-0.1999207c-1.5993652-2.1491547-2.4490356-3.3486633-2.5489502-3.4986115
	c-0.0499878,0.4498291,0.0499268,1.5993652,0.1998901,3.4486237c0.1999512,1.6493378,0.3998413,2.7489014,0.5498047,3.2986755
	c-0.249939-0.7496948-1.0496216-2.2990723-2.3990479-4.7480927c-1.4993896-2.7489014-2.2491455-4.4981995-2.2491455-5.1479492
	l-0.1499023-0.0499725c-0.0499878,0.2498932-0.4498291,1.7992859-1.0995483,4.548172
	c-0.249939-1.3994293-0.3998413-2.5489655-0.4498291-3.4486237c-0.3998413,0.5497894-0.7996826,1.1495361-1.2495117,1.6993256
	c-0.0999756,0.0999603-0.1998901,0.1999207-0.2998657,0.3498688c-0.0499878,0.0499725-0.0999756,0.1499329-0.1499634,0.1999207
	c-0.3498535,0.4498138-0.699707,0.8996277-1.0495605,1.3494568l-0.5498047-8.0967712h-0.0499878
	c-1.649292,1.4494171-3.0987549,3.0487823-4.3981934,4.8980408c-0.5498047,0.7497101-1.0496216,1.4994049-1.5493774,2.249115
	c0.2998657-3.4986115,0.9995728-6.8472748,2.1491089-10.0959625c0.699707-1.949234,1.4494019-3.7485199,2.2490845-5.4977875
	c-1.3994141,0.6497192-2.598938,1.4993896-3.5985107,2.6489258c-1.0496216,1.1995087-2.0491943,2.3990326-2.9988403,3.5985565
	c1.5493774-4.3982391,3.8484497-8.2966766,6.8972778-11.745285c-1.8493042,0.5498047-3.548584,1.4494019-4.9980469,2.6489258
	c-0.8995972,0.6997375-2.2490845,1.4993896-4.0983276,2.3490601c1.8492432-3.3486633,3.1987305-6.497406,3.9484253-9.3462524
	l-6.5474243,4.5981445c1.4494629-4.5981445,3.3986816-9.1463318,5.7977295-13.6445312
	c-1.4494629,0.2499084-3.4985962,1.4494019-6.147583,3.6485291c1.1495361-2.8488464,2.0491943-4.6981201,2.6989136-5.5977478
	c-1.9991455,1.5493774-3.3986197,3.2986755-4.1983023,5.1479492c-0.8496704,1.8492432-1.4494019,2.9487915-1.8492432,3.298645
	V49.4294128z"/>
<polygon fill="#3E3E20" points="29.3302269,70.2710571 29.3801537,70.2710571 29.3801537,70.2210846 29.3302269,70.2710571 "/>
<path fill="#38381D" d="M35.0779076,78.7176666h0.0499878c-0.0499878-0.0499725-0.0499878-0.0999603-0.0499878-0.1499329V78.7176666
	L35.0779076,78.7176666z"/>
<path fill="#CC6699" d="M49.9219627,59.4253845c-2.4490356-1.2494812-4.6981201-1.7492981-6.7473145-1.4993896
	c-1.3494873,0.2499084-2.4990234,0.8996277-3.3986206,2.0491638c-1.9992065,2.5490112-2.3490601,5.3978577-1.0995483,8.6465454
	c0.8496094,2.0491791,1.8492432,4.0483704,3.0987549,5.897644c0.5997314,0.9496155,1.2494507,1.899231,1.9492188,2.7988739
	c2.3490601,2.8988342,5.3478394,4.9480133,9.0463867,6.0975494c2.4489746,0.7996826,4.9979858,1.2994843,7.5969238,1.5493927
	l-2.6989136,1.6993103c1.1495361-0.0999603,2.3490601-0.1999207,3.4985962-0.2498932
	c1.0995483-0.1499481,2.0991821-0.4998016,2.9488564-1.1495361c-0.2499428,0.299881-0.4998207,0.599762-0.7996864,0.8496552
	c-0.3499146,0.299881-0.7497559,0.5497742-1.1995239,0.7496948c-0.5498047,0.3498688-1.1495361,0.6497498-1.6993408,0.8996429
	c0.949646,0.1999207,1.8492432,0.0999603,2.6989136-0.3498688c0.9496498-0.4498138,1.849247-0.999588,2.6989174-1.5493774
	c-0.0499878,0.3498688-0.0999756,0.6997223-0.1499634,1.0495758c-0.1499023,0.5497894-0.3498535,1.0495758-0.5497437,1.5493774
	l2.1990967-1.9992065l1.6993408,1.7493134l0.4498291-1.7493134l2.9487915,1.2494965l-1.9492188-1.899231l3.6485596,0.1999207
	l-2.0991821-0.8496552l4.9979858-0.7497101l-4.9979858-0.4498291c1.2994995-0.4998016,2.5490112-1.1495361,3.7985229-1.9492188
	c1.1495361-0.7996674,2.0991211-1.6993256,2.9487915-2.648941c1.4993896-1.7492981,2.4990234-3.848465,3.0487671-6.2474976
	c0.8496704-3.7984772,0.6497803-7.5469818-0.5498047-11.2454834c-0.4497681-1.5493774-1.3494263-2.8988647-2.6489258-4.0983887
	c-1.1995239-1.0995483-2.4989624-1.2994385-3.8984375-0.5997314c-2.2490845,1.0995483-4.4981689,2.2990723-6.6473389,3.548584
	c-2.8988037,1.5493774-6.0475502,2.0491638-9.4462318,1.4494019c-3.3486328-0.6497498-6.2474976-1.5993652-8.6964722-2.7489014
	V59.4253845z M47.0730858,60.9248047c0.949646,0.2498779,1.5993652,0.4498291,1.8492432,0.599762
	c2.8988647,1.3494568,6.3974609,2.3990173,10.4458618,3.1487427c1.0495605,0.0499573,2.0491333-0.0499878,3.0487671-0.2499084
	c3.6485634-0.4498291,7.047184-1.5993652,10.2959023-3.4985962l3.6484985-1.8492432c0.1499634,0,0.3498535,0,0.4998169,0
	s0.3498535,0,0.4998169,0.0499573c0.0999756,0.0499878,0.2498779,0.1499329,0.3998413,0.2499084
	c1.6992798,2.1991272,2.4989624,4.6481323,2.3990479,7.3470459c0.0499268,0.5497894,0,1.1495361-0.0499878,1.7992859v0.0499878
	c-0.0499878,0.2498932-0.0999756,0.5497742-0.1499634,0.8496399c-0.5997314,3.1487427-1.7992554,6.1475525-3.5985718,8.9963989
	c-0.0499878,0.0499878-0.0999146,0.1499481-0.1499023,0.1999207c-0.5997925,0.9496155-1.3494873,1.7493134-2.1991577,2.4490204
	c-1.649292,1.2494965-3.4985962,1.9992065-5.5477295,2.1991272c-3.6485596,0.6497498-7.1971474,0.3998413-10.6957436-0.6997223
	c-3.1487427-1.0495758-6.147522-2.4989929-8.9464111-4.3482666c-1.2495117-0.8496552-2.3990479-1.7992859-3.3486938-2.8488464
	c-1.3494263-1.3994446-2.5489502-2.9988098-3.548584-4.7980957c-0.0499878-0.1499329-0.0499878-0.4498138-0.0499878-0.8496399
	c-0.0499268-0.1999359-0.0499268-0.4498291-0.0499268-0.6997375c-0.0999756-0.4498138-0.1999512-0.8496552-0.3499146-1.299469
	c-0.0999146-0.2499084-0.1499023-0.4998016-0.1998901-0.7497101c-0.0999756-0.4498291-0.1499634-0.8496552-0.1999512-1.2494965
	c-0.0499268-0.599762,0-1.1495361,0.0999756-1.6493225c0.0499878-0.1499634,0.0499878-0.2998962,0.0999756-0.3998413
	c0.0999756-0.2999268,0.1998901-0.5997925,0.3498535-0.8496704c0.3998413-0.8496704,1.0495605-1.5493774,1.899231-2.1991272
	c0.5498047-0.1999207,1.0495605-0.2499084,1.5493774-0.1999207c0-0.0499878,0-0.0499878,0.0499878,0
	c0.1499634,0.0499878,0.3498535,0.0999756,0.4998169,0.1499329C46.1734276,60.7248535,46.6232567,60.8248291,47.0730858,60.9248047
	L47.0730858,60.9248047z"/>
<path d="M47.1730614,61.0747375c0.1499023,0.2998962,0.2498779,0.599762,0.3498535,0.8496399
	c0.0499878,0.349884,0.0999756,0.6497803,0.0499878,0.949646c-0.0499878,0.6497192-0.249939,1.299469-0.4998169,1.899231
	c-0.1499023,0.4498291-0.3998413,0.8496552-0.699707,1.1495361c-0.1999512,0.1999207-0.4498291,0.299881-0.699707,0.2499084
	c-0.699707-0.0999603-1.2495117-0.4998169-1.5993652-1.1495361c-0.1499634-0.349884-0.2998657-0.7497253-0.4498291-1.1495361
	c-0.0499878-0.3998718-0.0999756-0.7996826-0.0499878-1.1495361c0.0499878-0.349884,0.0999756-0.7497253,0.2498779-1.1495361
	c0.0499878-0.1499329,0.0499878-0.2499084,0.0999756-0.3998718c0.0499878-0.1998901,0.0999756-0.3998413,0.1499634-0.6497192
	c0.3498535-0.0499878,0.6497192-0.0999756,0.9995728-0.0999756c-0.4997559-0.0499878-0.9995728,0-1.5493774,0.1999512
	c-0.8496704,0.6497192-1.4993896,1.3494263-1.899231,2.1990967c-0.1499634,0.2499084-0.2498779,0.5498047-0.3498535,0.8496704
	c-0.0499878,0.0999756-0.0499878,0.2498779-0.0999756,0.3998413c-0.0999146,0.4998169-0.1499023,1.0495758-0.0999146,1.6493378
	c0.0499268,0.3998413,0.0999146,0.7996674,0.1998901,1.2494965c0.0499878,0.2498932,0.0999756,0.4998016,0.1998901,0.7497101
	c0.1499634,0.4498138,0.249939,0.8496552,0.3499146,1.299469c0.0499268,0.2499084,0.0499268,0.4498291,0.0999146,0.6497498
	c12.1451416-1.3994446,23.0907631,0.9496155,32.8368568,7.0471802c0.249939,0.1499329,0.5498047,0.299881,0.8496704,0.4998016
	c0.249939,0.0999603,0.4498291,0.2498932,0.5997925,0.4998016c0.0499878-0.0499878,0.0999146-0.1499481,0.1499023-0.1999207
	c1.7993164-2.8488617,2.9988403-5.8476562,3.5985718-8.9963989c0.0999756-0.599762,0.1499634-1.1995239,0.1999512-1.7992859
	c0.0999146-2.6989288-0.6997681-5.147934-2.3990479-7.3470612c-0.1499634-0.0999451-0.2999268-0.1998901-0.3998413-0.2498779
	c-0.1499634-0.0499878-0.3498535-0.0499878-0.4998169-0.0499878s-0.3498535,0-0.4998169,0
	c0,0.0499878,0,0.0499878,0.0499878,0.0999756c0.1499634,0.2498779,0.2498779,0.5497437,0.3498535,0.7996521
	s0.1999512,0.5497742,0.249939,0.8496399c0,0.1499634,0,0.2499084,0.0499268,0.2998962
	c0.0499878,0.4498291,0.0999756,0.8996277,0.0999756,1.3494568s-0.0499878,0.8996277-0.0999756,1.3494568
	c-0.0499268,0.6497498-0.1998901,1.2994843-0.4497681,1.9492188c-0.1499634,0.3498688-0.3498535,0.5997772-0.5997925,0.8496552
	c-0.1499023,0.0999603-0.3498535,0.1499481-0.5997314,0.1499481c-0.3998413-0.0499878-0.7496948-0.0999603-1.0496216-0.1999207
	c-0.3498535-0.1999207-0.699707-0.4498291-0.9995728-0.6997375c-0.2998657-0.2498932-0.5498047-0.599762-0.699707-0.9995728
	c-0.0999756-0.349884-0.1499634-0.7497253-0.0999756-1.1995239c0.0499878-0.5498047,0.0499878-1.0495605,0.0499878-1.4993896
	c0-0.0999756,0-0.1999512,0.0499878-0.2998962c0-0.2998962,0-0.5497742,0.0499878-0.7996826c0-0.0499573,0-0.0999451,0-0.1499329
	c-3.2487183,1.899231-6.6473389,3.0487671-10.2959023,3.4985962c-0.9995728,0.1999207-1.9992065,0.2998657-3.0487671,0.2499084
	c-4.0484009-0.7497253-7.5469971-1.7992859-10.4458618-3.1487427c-0.2498779-0.1499329-0.8995972-0.349884-1.8492432-0.599762
	C47.1230736,60.9747925,47.1230736,61.0247803,47.1730614,61.0747375L47.1730614,61.0747375z"/>
<path fill="#FFFFFF" d="M47.5229149,61.924408c-0.0999756-0.2499084-0.1998901-0.5497742-0.3498535-0.8496399
	c-0.0499878-0.0499878-0.0499878-0.0999756-0.0999756-0.1499634c-0.4498291-0.0999451-0.8996582-0.1998901-1.4494019-0.3498535
	c-0.1499634-0.0499878-0.3498535-0.0999756-0.4998169-0.1499329c-0.0499878-0.0499878-0.0499878-0.0499878-0.0499878,0
	c-0.3498535,0-0.6497192,0.0499573-0.9995728,0.0999451c-0.0499878,0.2499084-0.0999756,0.4498291-0.1499634,0.6497498
	c-0.0499878,0.1499329-0.0499878,0.2499084-0.0999756,0.3998718c-0.1499023,0.3998413-0.1998901,0.7996521-0.2498779,1.1495361
	c-0.0499878,0.3498535,0,0.7496948,0.0499878,1.1495361c0.1499634,0.3998413,0.2998657,0.7996521,0.4498291,1.1495209
	c0.3498535,0.6497345,0.8996582,1.0495605,1.5993652,1.1495361c0.2498779,0.0499725,0.4997559-0.0499878,0.699707-0.2499084
	c0.2998657-0.299881,0.5498047-0.6997223,0.699707-1.1495514c0.249939-0.5997314,0.4498291-1.2494812,0.4998169-1.899231
	C47.6228905,62.5741577,47.5729027,62.2742615,47.5229149,61.924408L47.5229149,61.924408z"/>
<path fill="#359F6A" d="M41.9251366,69.6712952c-0.0499268-0.1999207-0.0499268-0.3998413-0.0999146-0.6497498
	c0,0.2499084,0,0.4998016,0.0499878,0.6997375L41.9251366,69.6712952L41.9251366,69.6712952z"/>
<path fill="#BF4080" d="M41.9251366,69.6712952l-0.0499268,0.0499878c0,0.3998413,0,0.6997223,0.0499268,0.8496399
	c0.9996338,1.7992859,2.1991577,3.3986511,3.548584,4.7980957c0.949646,1.0495605,2.0991821,1.9991913,3.3486938,2.8488464
	c2.7988892,1.8492737,5.7976685,3.2986908,8.9464111,4.3482666c3.4985962,1.0995483,7.047184,1.3494568,10.6957436,0.6997223
	c2.0491333-0.1999207,3.8984375-0.9496155,5.5477295-2.1991272c0.8496704-0.6997223,1.5993652-1.4994049,2.1991577-2.4490204
	c0.0499878-0.0499725,0.0999756-0.1499329,0.1499634-0.1999207c1.7992554-2.8488464,2.9987793-5.8476562,3.5985107-8.9963989
	c0.0499878-0.299881,0.0999756-0.599762,0.1499634-0.8496399l-0.1499634-0.0499878
	c-0.5997314,3.1487427-1.7992554,6.1475372-3.5985107,8.9963989c-0.0499878,0.0499725-0.0999756,0.1499329-0.1499634,0.1999207
	c-0.5997925,0.9496155-1.3494873,1.7492981-2.1991577,2.4490204c-1.649292,1.2494965-3.4985962,1.9991913-5.5477295,2.1991119
	c-3.6485596,0.6497498-7.1971474,0.3998566-10.6957436-0.6997223c-3.1487427-1.0495758-6.147522-2.4989929-8.9464111-4.3482513
	c-1.2495117-0.8496552-2.3990479-1.7992859-3.3486938-2.8488617C44.1242943,73.0699463,42.9247704,71.4705811,41.9251366,69.6712952
	L41.9251366,69.6712952z"/>
<path fill="#FE7070" d="M41.9251366,69.6712952c0.9996338,1.7992859,2.1991577,3.3986511,3.548584,4.7980804
	c0.5997925-0.0499725,1.2495117-0.0499725,1.9992065-0.0499725c5.6977539-0.1499481,9.1963501-0.2499084,10.4957886-0.2499084
	c4.1983643,0,7.297123,0.1499481,9.3463173,0.4998016c1.0995483,0.1499481,2.1491089,0.3998413,3.1487427,0.6997223
	c1.649292,0.3498688,3.0487671,0.7996826,4.2982788,1.349472c-9.7460938-6.0975647-20.6917763-8.44664-32.8369179-7.0471802
	V69.6712952z"/>
<path fill="#FF9999" d="M45.4737206,74.4693909c0.949646,1.0495758,2.0991821,1.9992065,3.3486938,2.8488617
	c2.7988892,1.8492584,5.7976685,3.2986755,8.9464111,4.3482513c3.4985962,1.0995636,7.047184,1.3494568,10.6957436,0.6997223
	c2.0491333-0.1999207,3.8984375-0.9496002,5.5477905-2.1991119c0.8496094-0.6997375,1.5993042-1.4994049,2.1990967-2.4490204
	c-0.1499634-0.2499084-0.3498535-0.3998413-0.5997925-0.4998016c-0.2998657-0.1999207-0.5997314-0.3498688-0.8496094-0.4998016
	c-1.2495117-0.5497894-2.6489868-0.9996033-4.2982788-1.349472c-0.9996338-0.299881-2.0491943-0.5497742-3.1487427-0.6997223
	c-2.0491943-0.3498535-5.147953-0.4998016-9.3463173-0.4998016c-1.2994385,0-4.7980347,0.0999603-10.4957886,0.2499084
	c-0.7496948,0-1.3994141,0-1.9992065,0.0499725V74.4693909z"/>
<path fill="#FFFFFF" d="M77.0611267,61.1247253c-0.0499878-0.0499878-0.0499878-0.1499329-0.0499878-0.2998962
	c-0.0499878-0.2998657-0.1499634-0.5997314-0.2498779-0.8496399c-0.0999756-0.2499084-0.1999512-0.5497742-0.3499146-0.7996521
	c-0.0499268-0.0499878-0.0499268-0.0499878-0.0499268-0.0999756l-3.6485596,1.8492432c0,0.0499878,0,0.0999756,0,0.1499634
	c-0.0499878,0.2498779-0.0499878,0.4998169-0.0499878,0.7996826c-0.0499878,0.0999451-0.0499878,0.1998901-0.0499878,0.2998657
	c0,0.4498291,0,0.9496155-0.0499878,1.4993896c-0.0499878,0.4498291,0,0.8496704,0.0999756,1.1995239
	c0.1499634,0.3998413,0.3998413,0.7497101,0.699707,0.999588c0.2998657,0.2499084,0.6497803,0.4998169,0.9996338,0.6997375
	c0.2998657,0.0999603,0.6497192,0.1499329,1.0495605,0.1999207c0.2498779,0,0.4498291-0.0499878,0.5997314-0.1499481
	c0.249939-0.2498932,0.4498291-0.4998016,0.5997925-0.8496552c0.2498779-0.6497345,0.3998413-1.2994843,0.4498291-1.9492035
	c0.0499878-0.4498291,0.0999146-0.8996582,0.0999146-1.3494873s-0.0499268-0.8995972-0.0999146-1.3494263V61.1247253z"/>
<path fill="#FE45C7" d="M80.1098938,68.5217438c0.0499878-0.6497498,0.0999756-1.2494965,0.0499878-1.7992859
	c-0.0499878,0.5997772-0.0999756,1.1995239-0.1999512,1.7992859H80.1098938L80.1098938,68.5217438z"/>
<polygon fill="#FE7070" points="80.1098938,68.5217438 79.9599304,68.5217438 80.1098938,68.5717316 80.1098938,68.5217438 "/>
<path fill="#4B2750" d="M17.8348045,37.5341492l-3.6985464,4.9480286l3.6985464-3.7485046
	c2.4990234-0.1499329,5.1479492,0.5497742,7.9968262,2.0991516c2.8488159,1.4494324,5.3978271,3.2487183,7.6469116,5.3478699
	c0.9996338,0.9496155,1.899231,1.7492981,2.6989136,2.4989929c1.0496216,0.9496155,1.899231,1.6993408,2.598999,2.2990723
	l18.6425171-0.0999451l1.3994141-1.2494812c3.4486694-4.1483765,6.5474281-4.0983887,9.2963295,0.0999451
	c0.3498535,0.2998962,0.6497192,0.6497498,0.9995728,1.0995483c0.0499878,0.0499878,0.0999756,0.0499878,0.1499634,0.0999756
	c1.3994141,0.1499329,2.8988037,0.1999207,4.4481812,0.1499329c1.4494629,0,2.9488525,0,4.49823-0.0499878
	c0.8496704-0.0499878,1.649353-0.1499329,2.3490601-0.2998657c1.0995483-0.0499878,2.0991821-0.2499084,2.9487915-0.5997925
	c-0.0499878-0.4497986-0.0499878-0.8496399-0.0999756-1.1994934c-0.7996826,0.3498535-1.7492676,0.5497742-2.8488159,0.599762
	c-0.699707,0.1499329-1.4993896,0.2499084-2.3490601,0.2998657c-1.5493774,0.0499878-3.0487671,0.0499878-4.49823,0.0499878
	c-1.5493774,0.0499878-3.0487671,0-4.4481812-0.1499329c-0.0499878-0.0499878-0.0999756-0.0499878-0.1499634-0.0999451
	c-0.3498535-0.4498291-0.6497192-0.7996826-0.9995728-1.0995789c-2.7489014-4.1983337-5.8477211-4.248291-9.2963295-0.0999451
	l-1.3994141,1.2494812l-18.6425171,0.0999756c-0.6997681-0.599762-1.5494385-1.3494568-2.598999-2.2991028
	c-0.7996826-0.7496948-1.6993408-1.5493774-2.6989136-2.4989929c-2.2490845-2.0991516-4.7980957-3.8984375-7.6469116-5.3478699
	c-2.848877-1.5493774-5.4978027-2.2490845-7.9968262-2.0991211V37.5341492z"/>
<path fill="#FFFFFF" d="M62.866787,35.1351318c-0.0499878,0.0499573-0.0999756,0.0499573-0.1499634,0.0499573
	c-1.0995483-0.5497742-2.1990967-1.0995483-3.3486328-1.5493774l-5.9976196-1.7492981
	c-4.9979858-0.9996033-10.5457764-1.1995239-16.6932983-0.599762l2.0991211,18.4926147l18.6425781-0.0999756l1.3994141-1.2494812
	c3.4486084-4.1483459,6.5473671-4.0983887,9.2962685,0.0999451c0.3499146,0.2998962,0.6497803,0.6497498,0.9996338,1.0995789
	c0.0499878,0.0499573,0.0999756,0.0499573,0.1499023,0.0999451c1.3994751,0.1499329,2.8988647,0.1999207,4.4482422,0.1499329
	c1.4494019,0,2.9487915,0,4.49823-0.0499878c0.8496094-0.0499573,1.649292-0.1499329,2.3490601-0.2998657
	c1.0995483-0.0499878,2.0491333-0.2499084,2.8488159-0.599762h0.7496948v-0.0999756h0.249939l0.4498291-0.2499084h0.7996826
	l0.5997314-0.2498779l-0.949646-16.0435791l-3.5985107-0.2998962c-7.1471558-0.3498535-13.244751,0.7996826-18.3427162,3.3986511
	c-0.1998901-0.0499878-0.3498535-0.1499329-0.4997559-0.2499084V35.1351318z M69.2641907,36.284668v-0.0999756l14.2943115-0.8996277
	l0.4498291,9.6461487L70.2638245,45.381012l-1.5993652-0.0999451l-0.5498047-8.9963989H69.2641907L69.2641907,36.284668z
	 M41.4753075,45.0811462l-0.7996216-9.5961609l13.0947266-0.2499084l4.4482422,0.4497986l0.1499023,8.3966675l-8.5965576,0.4497986
	c-0.5997314,0.0499878-1.1995239,0.0499878-1.7992554,0.0999756c-1.9492188,0.1499329-4.0983887,0.2998657-6.4974365,0.4497986
	V45.0811462z"/>
<path fill="#FF0000" d="M69.2641907,36.1846924v0.0999756l0.9996338,9.096344l13.7445068-0.4497986l-0.4498291-9.6461487
	L69.2641907,36.1846924L69.2641907,36.1846924z M77.8607483,37.684082c0.949646-0.599762,1.7493286-0.8496704,2.4990234-0.699707
	c-0.0999756,0.4498291-0.6497192,0.8996277-1.5993652,1.4494019c-1.1495361,0.599762-1.899231,0.9996033-2.2990723,1.2495117
	c-2.7489014,1.649353-4.5481567,2.4490356-5.2978516,2.4490356c-0.249939-0.1499634-0.4998169-0.1999512-0.6497803-0.1499634
	c0.249939-0.3498535,0.949646-0.8496704,2.1991577-1.4494019c0.699707-0.349884,1.649292-0.7996826,2.8988037-1.3494873
	C76.0614929,38.9335938,76.8111877,38.4337769,77.8607483,37.684082L77.8607483,37.684082z M75.9115906,41.7324829
	l-0.1999512-0.1499634c0.3998413-0.4997864,1.1995239-1.0495605,2.3490601-1.5993347
	c1.0495605-0.5497742,2.0491943-0.8996582,2.9488525-1.0995789l0.0999146,0.2499084L75.9115906,41.7324829L75.9115906,41.7324829z"
	/>
<path fill="#FE7878" d="M80.3597717,36.984375c-0.7496948-0.1499329-1.5493774,0.0999756-2.4989624,0.6997375
	c-1.0495605,0.7496948-1.7993164,1.2494812-2.2491455,1.4993896c-1.2494507,0.5497742-2.1990967,0.9996033-2.8988037,1.3494568
	c-1.2495117,0.599762-1.9492188,1.0995789-2.1990967,1.4494324c0.1499023-0.0499878,0.3998413,0,0.6497192,0.1499329
	c0.7496948,0,2.5489502-0.7996826,5.2978516-2.4490356c0.3998413-0.2498779,1.1495972-0.6497192,2.2991333-1.2494812
	C79.7100525,37.8840332,80.2598572,37.4342041,80.3597717,36.984375L80.3597717,36.984375z"/>
<path fill="#FE7878" d="M75.7116394,41.5825195l0.1999512,0.1499634l5.197876-2.5989685L81.009491,38.883606
	c-0.8995972,0.1999207-1.899231,0.5497742-2.9487915,1.0995789C76.9111633,40.532959,76.1114807,41.0827332,75.7116394,41.5825195
	L75.7116394,41.5825195z"/>
<polygon fill="#BE0101" points="69.2641907,36.284668 68.1146545,36.284668 68.6644592,45.2810669 70.2638245,45.381012 
	69.2642517,36.284668 "/>
<path fill="#299E01" d="M40.6756248,35.4849854l0.7996826,9.5961609c2.3990479-0.1499329,4.5482178-0.2998962,6.4974365-0.4498291
	l-5.5477905,0.1999207l-0.4998169-8.9464111l16.2935181-0.1999207l-4.4482422-0.4498291L40.6756248,35.4849854
	L40.6756248,35.4849854z"/>
<path fill="#33CC00" d="M42.4249535,44.8312378l5.5477905-0.1999207c0.5997925-0.0499878,1.1995239-0.0499878,1.7993164-0.0999451
	l8.5964966-0.4498291l-0.1499023-8.396637l-16.293457,0.1999207L42.4249535,44.8312378L42.4249535,44.8312378z
	 M56.1694603,36.1846924c-1.3494873,0.8996582-2.7489014,1.7493286-4.1983032,2.5989685
	c-2.8988647,1.649353-4.7980957,2.4490356-5.7477417,2.4490356c-0.1499023,0-0.2498779,0-0.3498535,0.0499573
	C52.3709984,37.0343628,55.8196068,35.3350525,56.1694603,36.1846924L56.1694603,36.1846924z M57.0691185,37.3842163
	c0.0499878-0.0499573,0.0999146,0,0.0999146,0.1499634c0,0.2499084-1.1995239,0.9996033-3.548584,2.2490845
	c-2.3490601,1.1995239-3.7984619,1.8992615-4.3482056,2.0491943l-0.0499878-0.0499878
	c0.7996826-0.3498535,2.1491089-1.1495361,4.0483398-2.3990479c1.5493774-0.9496155,2.7988892-1.6493225,3.7485352-1.9992065
	H57.0691185L57.0691185,37.3842163z"/>
<path fill="#B3FE92" d="M51.9711571,38.7836609c1.4494019-0.8496704,2.848877-1.6993103,4.1983032-2.5989685
	c-0.3498535-0.8496704-3.7984619,0.8496704-10.2958984,5.0979614c0.0999756-0.0499878,0.1999512-0.0499878,0.3499146-0.0499878
	C47.1730614,41.232666,49.0722923,40.4329834,51.9711571,38.7836609L51.9711571,38.7836609z"/>
<path fill="#B3FE92" d="M57.1690331,37.5341492c0-0.1499329-0.0499268-0.1999207-0.0999146-0.1499329h-0.0499878
	c-0.949646,0.3498535-2.1991577,1.0495605-3.7485352,1.999176c-1.899231,1.2495117-3.2486572,2.0491943-4.0483398,2.3990479
	l0.0499878,0.0499878c0.5497437-0.1499329,1.9992065-0.8496704,4.3482056-2.0491638
	C55.9695091,38.5337524,57.1690331,37.7840576,57.1690331,37.5341492L57.1690331,37.5341492z"/>
</svg>
